<mxfile host="65bd71144e">
    <diagram id="ebTf_PipQa2EC-n7JJIH" name="Page-1">
        <mxGraphModel dx="1485" dy="468" grid="1" gridSize="10" guides="1" tooltips="1" connect="1" arrows="1" fold="1" page="1" pageScale="1" pageWidth="850" pageHeight="1100" math="0" shadow="0">
            <root>
                <mxCell id="0"/>
                <mxCell id="1" parent="0"/>
                <mxCell id="46" value="" style="edgeStyle=none;html=1;fontSize=14;" edge="1" parent="1" source="2" target="11">
                    <mxGeometry relative="1" as="geometry"/>
                </mxCell>
                <mxCell id="47" style="edgeStyle=none;html=1;exitX=0.75;exitY=1;exitDx=0;exitDy=0;entryX=0.5;entryY=0;entryDx=0;entryDy=0;fontSize=14;startArrow=none;" edge="1" parent="1" source="77" target="36">
                    <mxGeometry relative="1" as="geometry"/>
                </mxCell>
                <mxCell id="48" style="edgeStyle=none;html=1;exitX=1;exitY=0.75;exitDx=0;exitDy=0;fontSize=14;" edge="1" parent="1" source="2" target="35">
                    <mxGeometry relative="1" as="geometry"/>
                </mxCell>
                <mxCell id="49" style="edgeStyle=none;html=1;exitX=0;exitY=1;exitDx=0;exitDy=0;entryX=0.5;entryY=0;entryDx=0;entryDy=0;fontSize=14;" edge="1" parent="1" source="2" target="12">
                    <mxGeometry relative="1" as="geometry"/>
                </mxCell>
                <mxCell id="50" style="edgeStyle=none;html=1;exitX=0;exitY=0.75;exitDx=0;exitDy=0;fontSize=14;startArrow=none;" edge="1" parent="1" source="57" target="10">
                    <mxGeometry relative="1" as="geometry"/>
                </mxCell>
                <mxCell id="2" value="&lt;font style=&quot;font-size: 14px;&quot;&gt;App&lt;/font&gt;" style="rounded=1;whiteSpace=wrap;html=1;" parent="1" vertex="1">
                    <mxGeometry x="791" y="30" width="120" height="60" as="geometry"/>
                </mxCell>
                <mxCell id="5" value="&lt;font style=&quot;font-size: 14px;&quot;&gt;NameInput&lt;/font&gt;" style="rounded=1;whiteSpace=wrap;html=1;" parent="1" vertex="1">
                    <mxGeometry x="350" y="351" width="120" height="50" as="geometry"/>
                </mxCell>
                <mxCell id="51" style="edgeStyle=none;html=1;exitX=0.25;exitY=1;exitDx=0;exitDy=0;fontSize=14;startArrow=none;" edge="1" parent="1" source="19" target="5">
                    <mxGeometry relative="1" as="geometry"/>
                </mxCell>
                <mxCell id="52" style="edgeStyle=none;html=1;exitX=0.75;exitY=1;exitDx=0;exitDy=0;fontSize=14;startArrow=none;" edge="1" parent="1" source="55" target="41">
                    <mxGeometry relative="1" as="geometry"/>
                </mxCell>
                <mxCell id="10" value="&lt;font style=&quot;font-size: 14px;&quot;&gt;HomePage&lt;/font&gt;" style="rounded=1;whiteSpace=wrap;html=1;fillColor=#704D82;" parent="1" vertex="1">
                    <mxGeometry x="430" y="186" width="120" height="60" as="geometry"/>
                </mxCell>
                <mxCell id="11" value="&lt;font style=&quot;font-size: 14px;&quot;&gt;Navbar&lt;/font&gt;" style="rounded=1;whiteSpace=wrap;html=1;" parent="1" vertex="1">
                    <mxGeometry x="1028" y="30.000000000000004" width="120" height="60" as="geometry"/>
                </mxCell>
                <mxCell id="53" style="edgeStyle=none;html=1;exitX=0.5;exitY=1;exitDx=0;exitDy=0;fontSize=14;startArrow=none;" edge="1" parent="1" source="69" target="44">
                    <mxGeometry relative="1" as="geometry"/>
                </mxCell>
                <mxCell id="12" value="&lt;font style=&quot;font-size: 14px;&quot;&gt;LearnPage&lt;/font&gt;" style="rounded=1;whiteSpace=wrap;html=1;fillColor=#704D82;" parent="1" vertex="1">
                    <mxGeometry x="671" y="186" width="120" height="60" as="geometry"/>
                </mxCell>
                <mxCell id="20" value="setName" style="text;html=1;strokeColor=none;fillColor=none;align=center;verticalAlign=middle;whiteSpace=wrap;rounded=0;fontSize=14;" parent="1" vertex="1">
                    <mxGeometry x="821" y="110" width="60" height="30" as="geometry"/>
                </mxCell>
                <mxCell id="32" value="Routes" style="text;html=1;strokeColor=none;fillColor=none;align=center;verticalAlign=middle;whiteSpace=wrap;rounded=0;fontSize=14;" vertex="1" parent="1">
                    <mxGeometry x="821" y="90" width="60" height="30" as="geometry"/>
                </mxCell>
                <mxCell id="33" value="Links" style="text;html=1;strokeColor=none;fillColor=none;align=center;verticalAlign=middle;whiteSpace=wrap;rounded=0;fontSize=14;" vertex="1" parent="1">
                    <mxGeometry x="1058" y="90" width="60" height="30" as="geometry"/>
                </mxCell>
                <mxCell id="35" value="&lt;font style=&quot;font-size: 14px;&quot;&gt;AboutPage&lt;/font&gt;" style="rounded=1;whiteSpace=wrap;html=1;fillColor=#704D82;" vertex="1" parent="1">
                    <mxGeometry x="1150" y="186" width="120" height="60" as="geometry"/>
                </mxCell>
                <mxCell id="76" style="edgeStyle=none;html=1;exitX=0.5;exitY=1;exitDx=0;exitDy=0;fontSize=14;startArrow=none;" edge="1" parent="1" source="79" target="75">
                    <mxGeometry relative="1" as="geometry"/>
                </mxCell>
                <mxCell id="36" value="&lt;font style=&quot;font-size: 14px;&quot;&gt;QuizPage&lt;br&gt;&lt;/font&gt;" style="rounded=1;whiteSpace=wrap;html=1;fillColor=#704D82;" vertex="1" parent="1">
                    <mxGeometry x="911" y="186" width="117" height="60" as="geometry"/>
                </mxCell>
                <mxCell id="37" value="BackgroundColour" style="ellipse;whiteSpace=wrap;html=1;fontSize=14;fillColor=#727273;" vertex="1" parent="1">
                    <mxGeometry x="440" y="22.17" width="137" height="75.66" as="geometry"/>
                </mxCell>
                <mxCell id="40" value="Button" style="ellipse;whiteSpace=wrap;html=1;fontSize=14;fillColor=#727273;" vertex="1" parent="1">
                    <mxGeometry x="288" y="22.17" width="137" height="75.66" as="geometry"/>
                </mxCell>
                <mxCell id="41" value="&lt;font style=&quot;font-size: 14px;&quot;&gt;WelcomeDisplay&lt;/font&gt;" style="rounded=1;whiteSpace=wrap;html=1;" vertex="1" parent="1">
                    <mxGeometry x="500" y="351" width="120" height="50" as="geometry"/>
                </mxCell>
                <mxCell id="42" value="handleNameInput" style="text;html=1;strokeColor=none;fillColor=none;align=center;verticalAlign=middle;whiteSpace=wrap;rounded=0;fontSize=14;" vertex="1" parent="1">
                    <mxGeometry x="380" y="401" width="60" height="30" as="geometry"/>
                </mxCell>
                <mxCell id="43" value="Links" style="text;html=1;strokeColor=none;fillColor=none;align=center;verticalAlign=middle;whiteSpace=wrap;rounded=0;fontSize=14;" vertex="1" parent="1">
                    <mxGeometry x="701" y="401" width="60" height="30" as="geometry"/>
                </mxCell>
                <mxCell id="44" value="&lt;font style=&quot;font-size: 14px;&quot;&gt;ColourText&lt;br&gt;&lt;/font&gt;" style="rounded=1;whiteSpace=wrap;html=1;" vertex="1" parent="1">
                    <mxGeometry x="671" y="351" width="120" height="50" as="geometry"/>
                </mxCell>
                <mxCell id="58" value="" style="edgeStyle=none;html=1;exitX=0;exitY=0.75;exitDx=0;exitDy=0;fontSize=14;endArrow=none;" edge="1" parent="1" source="2" target="57">
                    <mxGeometry relative="1" as="geometry">
                        <mxPoint x="791" y="75" as="sourcePoint"/>
                        <mxPoint x="550" y="187.8936877076411" as="targetPoint"/>
                    </mxGeometry>
                </mxCell>
                <mxCell id="57" value="name&lt;br&gt;setName" style="text;html=1;strokeColor=none;fillColor=none;align=center;verticalAlign=middle;whiteSpace=wrap;rounded=0;fontSize=14;" vertex="1" parent="1">
                    <mxGeometry x="640" y="120" width="60" height="30" as="geometry"/>
                </mxCell>
                <mxCell id="63" value="" style="edgeStyle=none;html=1;exitX=0.25;exitY=1;exitDx=0;exitDy=0;fontSize=14;endArrow=none;" edge="1" parent="1" source="10" target="19">
                    <mxGeometry relative="1" as="geometry">
                        <mxPoint x="460" y="246" as="sourcePoint"/>
                        <mxPoint x="421.7924528301887" y="327" as="targetPoint"/>
                    </mxGeometry>
                </mxCell>
                <mxCell id="19" value="setName" style="text;html=1;strokeColor=none;fillColor=none;align=center;verticalAlign=middle;whiteSpace=wrap;rounded=0;fontSize=14;" parent="1" vertex="1">
                    <mxGeometry x="425" y="270" width="60" height="30" as="geometry"/>
                </mxCell>
                <mxCell id="64" value="" style="edgeStyle=none;html=1;exitX=0.75;exitY=1;exitDx=0;exitDy=0;fontSize=14;endArrow=none;" edge="1" parent="1" source="10" target="55">
                    <mxGeometry relative="1" as="geometry">
                        <mxPoint x="520" y="246" as="sourcePoint"/>
                        <mxPoint x="550.5660377358492" y="327" as="targetPoint"/>
                    </mxGeometry>
                </mxCell>
                <mxCell id="55" value="name" style="text;html=1;strokeColor=none;fillColor=none;align=center;verticalAlign=middle;whiteSpace=wrap;rounded=0;fontSize=14;" vertex="1" parent="1">
                    <mxGeometry x="500" y="270" width="60" height="30" as="geometry"/>
                </mxCell>
                <mxCell id="71" value="" style="edgeStyle=none;html=1;exitX=0.5;exitY=1;exitDx=0;exitDy=0;fontSize=14;endArrow=none;" edge="1" parent="1" source="12" target="69">
                    <mxGeometry relative="1" as="geometry">
                        <mxPoint x="731" y="246" as="sourcePoint"/>
                        <mxPoint x="731" y="327" as="targetPoint"/>
                    </mxGeometry>
                </mxCell>
                <mxCell id="69" value="colourInfo&lt;br&gt;colour" style="text;html=1;strokeColor=none;fillColor=none;align=center;verticalAlign=middle;whiteSpace=wrap;rounded=0;fontSize=14;" vertex="1" parent="1">
                    <mxGeometry x="701" y="280" width="60" height="30" as="geometry"/>
                </mxCell>
                <mxCell id="75" value="&lt;font style=&quot;font-size: 14px;&quot;&gt;QuestionTypeOne&lt;/font&gt;" style="rounded=1;whiteSpace=wrap;html=1;" vertex="1" parent="1">
                    <mxGeometry x="910" y="351" width="119" height="50" as="geometry"/>
                </mxCell>
                <mxCell id="78" value="" style="edgeStyle=none;html=1;exitX=1;exitY=1;exitDx=0;exitDy=0;entryX=0.5;entryY=0;entryDx=0;entryDy=0;fontSize=14;endArrow=none;" edge="1" parent="1" source="2" target="77">
                    <mxGeometry relative="1" as="geometry">
                        <mxPoint x="911" y="90" as="sourcePoint"/>
                        <mxPoint x="969.5" y="186" as="targetPoint"/>
                    </mxGeometry>
                </mxCell>
                <mxCell id="77" value="name" style="text;html=1;strokeColor=none;fillColor=none;align=center;verticalAlign=middle;whiteSpace=wrap;rounded=0;fontSize=14;" vertex="1" parent="1">
                    <mxGeometry x="911" y="130" width="60" height="30" as="geometry"/>
                </mxCell>
                <mxCell id="80" value="" style="edgeStyle=none;html=1;exitX=0.5;exitY=1;exitDx=0;exitDy=0;fontSize=14;endArrow=none;" edge="1" parent="1" source="36" target="79">
                    <mxGeometry relative="1" as="geometry">
                        <mxPoint x="969.5" y="246" as="sourcePoint"/>
                        <mxPoint x="969.5" y="327" as="targetPoint"/>
                    </mxGeometry>
                </mxCell>
                <mxCell id="79" value="name" style="text;html=1;strokeColor=none;fillColor=none;align=center;verticalAlign=middle;whiteSpace=wrap;rounded=0;fontSize=14;" vertex="1" parent="1">
                    <mxGeometry x="939.5" y="280" width="60" height="30" as="geometry"/>
                </mxCell>
            </root>
        </mxGraphModel>
    </diagram>
</mxfile>